<?xml version="1.0" standalone="no"?><!DOCTYPE svg PUBLIC "-//W3C//DTD SVG 1.1//EN" "http://www.w3.org/Graphics/SVG/1.1/DTD/svg11.dtd"><svg t="1750921124131" class="icon" viewBox="0 0 1024 1024" version="1.1" xmlns="http://www.w3.org/2000/svg" p-id="5653" xmlns:xlink="http://www.w3.org/1999/xlink" width="200" height="200"><path d="M455.936 322.773333l5.802667 5.376 447.146666 447.488a96.853333 96.853333 0 0 1-136.96 136.874667L324.736 465.066667a96.042667 96.042667 0 0 1 0.042667-135.765334l6.698666-6.229333a96 96 0 0 1 124.416-0.298667z m36.181333 126.336l-46.421333 46.421334 371.456 371.754666a32.853333 32.853333 0 1 0 46.464-46.421333l-371.498667-371.754667z m-187.136 191.146667L309.333333 640a32 32 0 0 1 31.701334 27.648L341.333333 672v32h32a32 32 0 0 1 31.701334 27.648l0.298666 4.352a32 32 0 0 1-27.648 31.701333L373.333333 768H341.333333v32a32 32 0 0 1-27.648 31.701333l-4.352 0.298667a32 32 0 0 1-31.701333-27.648L277.333333 800V768h-32a32 32 0 0 1-31.701333-27.648L213.333333 736a32 32 0 0 1 27.648-31.701333l4.352-0.298667h32v-32a32 32 0 0 1 27.648-31.701333L309.333333 640l-4.352 0.298667z m66.261334-266.837333l-1.152 1.152a32.042667 32.042667 0 0 0 0 45.269333l30.336 30.421333 46.464-46.464-31.146667-31.146666a32 32 0 0 0-44.501333 0.768z m360.405333-159.786667L736 213.333333a32 32 0 0 1 31.701333 27.648L768 245.333333v32h32a32 32 0 0 1 31.701333 27.648l0.298667 4.352a32 32 0 0 1-27.648 31.701334L800 341.333333H768v32a32 32 0 0 1-27.648 31.701334l-4.352 0.298666a32 32 0 0 1-31.701333-27.648L704 373.333333V341.333333h-32a32 32 0 0 1-31.701333-27.648L640 309.333333a32 32 0 0 1 27.648-31.701333l4.352-0.298667h32v-32a32 32 0 0 1 27.648-31.701333L736 213.333333l-4.352 0.298667z m-512-85.333333L224 128a32 32 0 0 1 31.701333 27.648L256 160v32h32a32 32 0 0 1 31.701333 27.648l0.298667 4.352a32 32 0 0 1-27.648 31.701333L288 256H256v32a32 32 0 0 1-27.648 31.701333L224 320a32 32 0 0 1-31.701333-27.648L192 288V256h-32a32 32 0 0 1-31.701333-27.648L128 224a32 32 0 0 1 27.648-31.701333L160 192h32v-32a32 32 0 0 1 27.648-31.701333L224 128l-4.352 0.298667z" fill="#212121" p-id="5654"></path></svg>