<?xml version="1.0" standalone="no"?><!DOCTYPE svg PUBLIC "-//W3C//DTD SVG 1.1//EN" "http://www.w3.org/Graphics/SVG/1.1/DTD/svg11.dtd"><svg t="1750921176668" class="icon" viewBox="0 0 1024 1024" version="1.1" xmlns="http://www.w3.org/2000/svg" p-id="6627" xmlns:xlink="http://www.w3.org/1999/xlink" width="200" height="200"><path d="M507.733333 981.333333C246.4 981.333333 34.133333 769.109333 34.133333 507.733333 34.133333 246.4 246.4 34.133333 507.733333 34.133333 769.109333 34.133333 981.333333 246.4 981.333333 507.733333 981.333333 769.109333 769.109333 981.333333 507.733333 981.333333z m0-852.181333A378.538667 378.538667 0 0 0 129.152 507.733333c0 209.066667 169.514667 378.581333 378.581333 378.581334 209.066667 0 378.581333-169.514667 378.581334-378.581334 0-209.066667-169.514667-378.581333-378.581334-378.581333z" fill="#172B4D" p-id="6628"></path><path d="M677.205333 555.264H338.261333A46.677333 46.677333 0 0 1 290.730667 507.733333c0-26.922667 20.608-47.530667 47.530666-47.530666h340.522667c26.965333 0 47.530667 20.608 47.530667 47.530666 0 26.922667-22.186667 47.530667-49.066667 47.530667z" fill="#172B4D" p-id="6629"></path><path d="M507.733333 724.736a46.677333 46.677333 0 0 1-47.530666-47.530667V338.261333c0-26.922667 20.608-47.530667 47.530666-47.530666 26.922667 0 47.530667 20.608 47.530667 47.530666v340.522667c0 25.344-20.608 45.952-47.530667 45.952z" fill="#172B4D" p-id="6630"></path></svg>